<?xml version="1.0" encoding="UTF-8" standalone="no"?>
<!-- Created with Inkscape (http://www.inkscape.org/) -->

<svg
   xmlns:dc="http://purl.org/dc/elements/1.1/"
   xmlns:cc="http://creativecommons.org/ns#"
   xmlns:rdf="http://www.w3.org/1999/02/22-rdf-syntax-ns#"
   xmlns:svg="http://www.w3.org/2000/svg"
   xmlns="http://www.w3.org/2000/svg"
   xmlns:sodipodi="http://sodipodi.sourceforge.net/DTD/sodipodi-0.dtd"
   xmlns:inkscape="http://www.inkscape.org/namespaces/inkscape"
   version="1.2"
   width="524.40942"
   height="372.04724"
   id="svg2930"
   inkscape:version="0.48.4 r9939"
   sodipodi:docname="brainvisa_logo.svg">
  <metadata
     id="metadata2920">
    <rdf:RDF>
      <cc:Work
         rdf:about="">
        <dc:format>image/svg+xml</dc:format>
        <dc:type
           rdf:resource="http://purl.org/dc/dcmitype/StillImage" />
        <dc:title />
      </cc:Work>
    </rdf:RDF>
  </metadata>
  <sodipodi:namedview
     pagecolor="#ffffff"
     bordercolor="#666666"
     borderopacity="1"
     objecttolerance="10"
     gridtolerance="10"
     guidetolerance="10"
     inkscape:pageopacity="0"
     inkscape:pageshadow="2"
     inkscape:window-width="1441"
     inkscape:window-height="783"
     id="namedview2918"
     showgrid="false"
     inkscape:zoom="1"
     inkscape:cx="271.06026"
     inkscape:cy="151.25357"
     inkscape:window-x="360"
     inkscape:window-y="24"
     inkscape:window-maximized="0"
     inkscape:current-layer="svg2930" />
  <defs
     id="defs2934">
    <inkscape:perspective
       sodipodi:type="inkscape:persp3d"
       inkscape:vp_x="0 : 600 : 1"
       inkscape:vp_y="0 : 1000 : 0"
       inkscape:vp_z="1164 : 600 : 1"
       inkscape:persp3d-origin="582 : 400 : 1"
       id="perspective2922" />
    <inkscape:perspective
       id="perspective2905"
       inkscape:persp3d-origin="0.5 : 0.33333333 : 1"
       inkscape:vp_z="1 : 0.5 : 1"
       inkscape:vp_y="0 : 1000 : 0"
       inkscape:vp_x="0 : 0.5 : 1"
       sodipodi:type="inkscape:persp3d" />
    <inkscape:perspective
       id="perspective3697"
       inkscape:persp3d-origin="0.5 : 0.33333333 : 1"
       inkscape:vp_z="1 : 0.5 : 1"
       inkscape:vp_y="0 : 1000 : 0"
       inkscape:vp_x="0 : 0.5 : 1"
       sodipodi:type="inkscape:persp3d" />
    <inkscape:perspective
       id="perspective3752"
       inkscape:persp3d-origin="0.5 : 0.33333333 : 1"
       inkscape:vp_z="1 : 0.5 : 1"
       inkscape:vp_y="0 : 1000 : 0"
       inkscape:vp_x="0 : 0.5 : 1"
       sodipodi:type="inkscape:persp3d" />
    <inkscape:perspective
       id="perspective3807"
       inkscape:persp3d-origin="0.5 : 0.33333333 : 1"
       inkscape:vp_z="1 : 0.5 : 1"
       inkscape:vp_y="0 : 1000 : 0"
       inkscape:vp_x="0 : 0.5 : 1"
       sodipodi:type="inkscape:persp3d" />
    <inkscape:perspective
       id="perspective3886"
       inkscape:persp3d-origin="0.5 : 0.33333333 : 1"
       inkscape:vp_z="1 : 0.5 : 1"
       inkscape:vp_y="0 : 1000 : 0"
       inkscape:vp_x="0 : 0.5 : 1"
       sodipodi:type="inkscape:persp3d" />
    <inkscape:perspective
       id="perspective3941"
       inkscape:persp3d-origin="0.5 : 0.33333333 : 1"
       inkscape:vp_z="1 : 0.5 : 1"
       inkscape:vp_y="0 : 1000 : 0"
       inkscape:vp_x="0 : 0.5 : 1"
       sodipodi:type="inkscape:persp3d" />
    <inkscape:perspective
       id="perspective3996"
       inkscape:persp3d-origin="0.5 : 0.33333333 : 1"
       inkscape:vp_z="1 : 0.5 : 1"
       inkscape:vp_y="0 : 1000 : 0"
       inkscape:vp_x="0 : 0.5 : 1"
       sodipodi:type="inkscape:persp3d" />
    <inkscape:perspective
       id="perspective4051"
       inkscape:persp3d-origin="0.5 : 0.33333333 : 1"
       inkscape:vp_z="1 : 0.5 : 1"
       inkscape:vp_y="0 : 1000 : 0"
       inkscape:vp_x="0 : 0.5 : 1"
       sodipodi:type="inkscape:persp3d" />
    <inkscape:perspective
       id="perspective4106"
       inkscape:persp3d-origin="0.5 : 0.33333333 : 1"
       inkscape:vp_z="1 : 0.5 : 1"
       inkscape:vp_y="0 : 1000 : 0"
       inkscape:vp_x="0 : 0.5 : 1"
       sodipodi:type="inkscape:persp3d" />
    <inkscape:perspective
       id="perspective4161"
       inkscape:persp3d-origin="0.5 : 0.33333333 : 1"
       inkscape:vp_z="1 : 0.5 : 1"
       inkscape:vp_y="0 : 1000 : 0"
       inkscape:vp_x="0 : 0.5 : 1"
       sodipodi:type="inkscape:persp3d" />
    <inkscape:perspective
       id="perspective4216"
       inkscape:persp3d-origin="0.5 : 0.33333333 : 1"
       inkscape:vp_z="1 : 0.5 : 1"
       inkscape:vp_y="0 : 1000 : 0"
       inkscape:vp_x="0 : 0.5 : 1"
       sodipodi:type="inkscape:persp3d" />
    <inkscape:perspective
       id="perspective4271"
       inkscape:persp3d-origin="0.5 : 0.33333333 : 1"
       inkscape:vp_z="1 : 0.5 : 1"
       inkscape:vp_y="0 : 1000 : 0"
       inkscape:vp_x="0 : 0.5 : 1"
       sodipodi:type="inkscape:persp3d" />
    <inkscape:perspective
       id="perspective4328"
       inkscape:persp3d-origin="0.5 : 0.33333333 : 1"
       inkscape:vp_z="1 : 0.5 : 1"
       inkscape:vp_y="0 : 1000 : 0"
       inkscape:vp_x="0 : 0.5 : 1"
       sodipodi:type="inkscape:persp3d" />
    <inkscape:perspective
       id="perspective4386"
       inkscape:persp3d-origin="0.5 : 0.33333333 : 1"
       inkscape:vp_z="1 : 0.5 : 1"
       inkscape:vp_y="0 : 1000 : 0"
       inkscape:vp_x="0 : 0.5 : 1"
       sodipodi:type="inkscape:persp3d" />
    <inkscape:perspective
       id="perspective4444"
       inkscape:persp3d-origin="0.5 : 0.33333333 : 1"
       inkscape:vp_z="1 : 0.5 : 1"
       inkscape:vp_y="0 : 1000 : 0"
       inkscape:vp_x="0 : 0.5 : 1"
       sodipodi:type="inkscape:persp3d" />
    <inkscape:perspective
       id="perspective4502"
       inkscape:persp3d-origin="0.5 : 0.33333333 : 1"
       inkscape:vp_z="1 : 0.5 : 1"
       inkscape:vp_y="0 : 1000 : 0"
       inkscape:vp_x="0 : 0.5 : 1"
       sodipodi:type="inkscape:persp3d" />
    <inkscape:perspective
       id="perspective4543"
       inkscape:persp3d-origin="0.5 : 0.33333333 : 1"
       inkscape:vp_z="1 : 0.5 : 1"
       inkscape:vp_y="0 : 1000 : 0"
       inkscape:vp_x="0 : 0.5 : 1"
       sodipodi:type="inkscape:persp3d" />
    <path
       style="font-size:medium;font-style:normal;font-variant:normal;font-weight:normal;font-stretch:normal;text-indent:0;text-align:start;text-decoration:none;line-height:normal;letter-spacing:normal;word-spacing:normal;text-transform:none;direction:ltr;block-progression:tb;writing-mode:lr-tb;text-anchor:start;color:#000000;fill:#000000;fill-opacity:1;stroke:none;stroke-width:20;marker:none;visibility:visible;display:inline;overflow:visible;enable-background:accumulate;font-family:AR PL UMing CN;-inkscape-font-specification:AR PL UMing CN"
       d="m 5206.79,4563.7023 c -321.6298,0 -582.5937,260.9327 -582.5937,582.5625 0,321.6297 260.9639,582.5628 582.5937,582.5628 321.6298,0 582.5625,-260.9331 582.5625,-582.5628 0,-321.6298 -260.9327,-582.5625 -582.5625,-582.5625 z m 0,20 c 310.821,0 562.5625,251.7415 562.5625,562.5625 0,310.8209 -251.7415,562.5628 -562.5625,562.5628 -310.821,0 -562.5937,-251.7419 -562.5937,-562.5628 0,-310.821 251.7727,-562.5625 562.5937,-562.5625 z"
       id="path3032-5-9-3-2-6-2-6-0-3-2"
       inkscape:connector-curvature="0" />
    <inkscape:perspective
       id="perspective4605"
       inkscape:persp3d-origin="0.5 : 0.33333333 : 1"
       inkscape:vp_z="1 : 0.5 : 1"
       inkscape:vp_y="0 : 1000 : 0"
       inkscape:vp_x="0 : 0.5 : 1"
       sodipodi:type="inkscape:persp3d" />
    <inkscape:perspective
       id="perspective4627"
       inkscape:persp3d-origin="0.5 : 0.33333333 : 1"
       inkscape:vp_z="1 : 0.5 : 1"
       inkscape:vp_y="0 : 1000 : 0"
       inkscape:vp_x="0 : 0.5 : 1"
       sodipodi:type="inkscape:persp3d" />
    <inkscape:perspective
       id="perspective4707"
       inkscape:persp3d-origin="0.5 : 0.33333333 : 1"
       inkscape:vp_z="1 : 0.5 : 1"
       inkscape:vp_y="0 : 1000 : 0"
       inkscape:vp_x="0 : 0.5 : 1"
       sodipodi:type="inkscape:persp3d" />
    <inkscape:perspective
       id="perspective4762"
       inkscape:persp3d-origin="0.5 : 0.33333333 : 1"
       inkscape:vp_z="1 : 0.5 : 1"
       inkscape:vp_y="0 : 1000 : 0"
       inkscape:vp_x="0 : 0.5 : 1"
       sodipodi:type="inkscape:persp3d" />
    <inkscape:perspective
       id="perspective4817"
       inkscape:persp3d-origin="0.5 : 0.33333333 : 1"
       inkscape:vp_z="1 : 0.5 : 1"
       inkscape:vp_y="0 : 1000 : 0"
       inkscape:vp_x="0 : 0.5 : 1"
       sodipodi:type="inkscape:persp3d" />
    <inkscape:perspective
       id="perspective4869"
       inkscape:persp3d-origin="0.5 : 0.33333333 : 1"
       inkscape:vp_z="1 : 0.5 : 1"
       inkscape:vp_y="0 : 1000 : 0"
       inkscape:vp_x="0 : 0.5 : 1"
       sodipodi:type="inkscape:persp3d" />
    <inkscape:perspective
       id="perspective4921"
       inkscape:persp3d-origin="0.5 : 0.33333333 : 1"
       inkscape:vp_z="1 : 0.5 : 1"
       inkscape:vp_y="0 : 1000 : 0"
       inkscape:vp_x="0 : 0.5 : 1"
       sodipodi:type="inkscape:persp3d" />
    <inkscape:perspective
       id="perspective4973"
       inkscape:persp3d-origin="0.5 : 0.33333333 : 1"
       inkscape:vp_z="1 : 0.5 : 1"
       inkscape:vp_y="0 : 1000 : 0"
       inkscape:vp_x="0 : 0.5 : 1"
       sodipodi:type="inkscape:persp3d" />
    <inkscape:perspective
       id="perspective5019"
       inkscape:persp3d-origin="0.5 : 0.33333333 : 1"
       inkscape:vp_z="1 : 0.5 : 1"
       inkscape:vp_y="0 : 1000 : 0"
       inkscape:vp_x="0 : 0.5 : 1"
       sodipodi:type="inkscape:persp3d" />
    <inkscape:perspective
       id="perspective5050"
       inkscape:persp3d-origin="0.5 : 0.33333333 : 1"
       inkscape:vp_z="1 : 0.5 : 1"
       inkscape:vp_y="0 : 1000 : 0"
       inkscape:vp_x="0 : 0.5 : 1"
       sodipodi:type="inkscape:persp3d" />
    <inkscape:perspective
       id="perspective5100"
       inkscape:persp3d-origin="0.5 : 0.33333333 : 1"
       inkscape:vp_z="1 : 0.5 : 1"
       inkscape:vp_y="0 : 1000 : 0"
       inkscape:vp_x="0 : 0.5 : 1"
       sodipodi:type="inkscape:persp3d" />
    <inkscape:perspective
       id="perspective5100-3"
       inkscape:persp3d-origin="0.5 : 0.33333333 : 1"
       inkscape:vp_z="1 : 0.5 : 1"
       inkscape:vp_y="0 : 1000 : 0"
       inkscape:vp_x="0 : 0.5 : 1"
       sodipodi:type="inkscape:persp3d" />
    <inkscape:perspective
       id="perspective5100-31"
       inkscape:persp3d-origin="0.5 : 0.33333333 : 1"
       inkscape:vp_z="1 : 0.5 : 1"
       inkscape:vp_y="0 : 1000 : 0"
       inkscape:vp_x="0 : 0.5 : 1"
       sodipodi:type="inkscape:persp3d" />
    <inkscape:perspective
       id="perspective5100-7"
       inkscape:persp3d-origin="0.5 : 0.33333333 : 1"
       inkscape:vp_z="1 : 0.5 : 1"
       inkscape:vp_y="0 : 1000 : 0"
       inkscape:vp_x="0 : 0.5 : 1"
       sodipodi:type="inkscape:persp3d" />
    <inkscape:perspective
       id="perspective5158"
       inkscape:persp3d-origin="0.5 : 0.33333333 : 1"
       inkscape:vp_z="1 : 0.5 : 1"
       inkscape:vp_y="0 : 1000 : 0"
       inkscape:vp_x="0 : 0.5 : 1"
       sodipodi:type="inkscape:persp3d" />
    <inkscape:perspective
       id="perspective5158-5"
       inkscape:persp3d-origin="0.5 : 0.33333333 : 1"
       inkscape:vp_z="1 : 0.5 : 1"
       inkscape:vp_y="0 : 1000 : 0"
       inkscape:vp_x="0 : 0.5 : 1"
       sodipodi:type="inkscape:persp3d" />
    <inkscape:perspective
       id="perspective5158-2"
       inkscape:persp3d-origin="0.5 : 0.33333333 : 1"
       inkscape:vp_z="1 : 0.5 : 1"
       inkscape:vp_y="0 : 1000 : 0"
       inkscape:vp_x="0 : 0.5 : 1"
       sodipodi:type="inkscape:persp3d" />
    <inkscape:perspective
       id="perspective5158-8"
       inkscape:persp3d-origin="0.5 : 0.33333333 : 1"
       inkscape:vp_z="1 : 0.5 : 1"
       inkscape:vp_y="0 : 1000 : 0"
       inkscape:vp_x="0 : 0.5 : 1"
       sodipodi:type="inkscape:persp3d" />
    <inkscape:perspective
       id="perspective3083"
       inkscape:persp3d-origin="0.5 : 0.33333333 : 1"
       inkscape:vp_z="1 : 0.5 : 1"
       inkscape:vp_y="0 : 1000 : 0"
       inkscape:vp_x="0 : 0.5 : 1"
       sodipodi:type="inkscape:persp3d" />
    <inkscape:perspective
       id="perspective3129"
       inkscape:persp3d-origin="0.5 : 0.33333333 : 1"
       inkscape:vp_z="1 : 0.5 : 1"
       inkscape:vp_y="0 : 1000 : 0"
       inkscape:vp_x="0 : 0.5 : 1"
       sodipodi:type="inkscape:persp3d" />
    <inkscape:perspective
       id="perspective3151"
       inkscape:persp3d-origin="0.5 : 0.33333333 : 1"
       inkscape:vp_z="1 : 0.5 : 1"
       inkscape:vp_y="0 : 1000 : 0"
       inkscape:vp_x="0 : 0.5 : 1"
       sodipodi:type="inkscape:persp3d" />
    <inkscape:perspective
       id="perspective2844"
       inkscape:persp3d-origin="0.5 : 0.33333333 : 1"
       inkscape:vp_z="1 : 0.5 : 1"
       inkscape:vp_y="0 : 1000 : 0"
       inkscape:vp_x="0 : 0.5 : 1"
       sodipodi:type="inkscape:persp3d" />
    <inkscape:perspective
       id="perspective2858"
       inkscape:persp3d-origin="0.5 : 0.33333333 : 1"
       inkscape:vp_z="1 : 0.5 : 1"
       inkscape:vp_y="0 : 1000 : 0"
       inkscape:vp_x="0 : 0.5 : 1"
       sodipodi:type="inkscape:persp3d" />
    <inkscape:perspective
       id="perspective3992"
       inkscape:persp3d-origin="0.5 : 0.33333333 : 1"
       inkscape:vp_z="1 : 0.5 : 1"
       inkscape:vp_y="0 : 1000 : 0"
       inkscape:vp_x="0 : 0.5 : 1"
       sodipodi:type="inkscape:persp3d" />
    <inkscape:perspective
       id="perspective4106-4"
       inkscape:persp3d-origin="0.5 : 0.33333333 : 1"
       inkscape:vp_z="1 : 0.5 : 1"
       inkscape:vp_y="0 : 1000 : 0"
       inkscape:vp_x="0 : 0.5 : 1"
       sodipodi:type="inkscape:persp3d" />
    <path
       style="fill:none;stroke:#191919;stroke-width:1px;stroke-linecap:butt;stroke-linejoin:miter;stroke-opacity:1"
       d="m 6218.5139,7286.6557 c 249.171,-22.8967 570.8562,-182.0423 670.5247,-366.5635"
       id="path3719-6"
       sodipodi:nodetypes="cc"
       inkscape:connector-curvature="0" />
    <inkscape:perspective
       id="perspective4170"
       inkscape:persp3d-origin="0.5 : 0.33333333 : 1"
       inkscape:vp_z="1 : 0.5 : 1"
       inkscape:vp_y="0 : 1000 : 0"
       inkscape:vp_x="0 : 0.5 : 1"
       sodipodi:type="inkscape:persp3d" />
    <inkscape:perspective
       id="perspective4222"
       inkscape:persp3d-origin="0.5 : 0.33333333 : 1"
       inkscape:vp_z="1 : 0.5 : 1"
       inkscape:vp_y="0 : 1000 : 0"
       inkscape:vp_x="0 : 0.5 : 1"
       sodipodi:type="inkscape:persp3d" />
    <inkscape:perspective
       id="perspective4278"
       inkscape:persp3d-origin="0.5 : 0.33333333 : 1"
       inkscape:vp_z="1 : 0.5 : 1"
       inkscape:vp_y="0 : 1000 : 0"
       inkscape:vp_x="0 : 0.5 : 1"
       sodipodi:type="inkscape:persp3d" />
    <inkscape:perspective
       id="perspective4303"
       inkscape:persp3d-origin="0.5 : 0.33333333 : 1"
       inkscape:vp_z="1 : 0.5 : 1"
       inkscape:vp_y="0 : 1000 : 0"
       inkscape:vp_x="0 : 0.5 : 1"
       sodipodi:type="inkscape:persp3d" />
    <inkscape:perspective
       id="perspective4363"
       inkscape:persp3d-origin="0.5 : 0.33333333 : 1"
       inkscape:vp_z="1 : 0.5 : 1"
       inkscape:vp_y="0 : 1000 : 0"
       inkscape:vp_x="0 : 0.5 : 1"
       sodipodi:type="inkscape:persp3d" />
    <inkscape:perspective
       id="perspective4436"
       inkscape:persp3d-origin="0.5 : 0.33333333 : 1"
       inkscape:vp_z="1 : 0.5 : 1"
       inkscape:vp_y="0 : 1000 : 0"
       inkscape:vp_x="0 : 0.5 : 1"
       sodipodi:type="inkscape:persp3d" />
    <inkscape:perspective
       id="perspective4511"
       inkscape:persp3d-origin="0.5 : 0.33333333 : 1"
       inkscape:vp_z="1 : 0.5 : 1"
       inkscape:vp_y="0 : 1000 : 0"
       inkscape:vp_x="0 : 0.5 : 1"
       sodipodi:type="inkscape:persp3d" />
  </defs>
  <flowRoot
     id="flowRoot3808"
     xml:space="preserve"
     style="font-size:12px;font-style:normal;font-weight:normal;fill:#000000;fill-opacity:1;stroke:none;font-family:Bitstream Vera Sans"
     transform="translate(620.85779,-4834.1243)"><flowRegion
       id="flowRegion3810"><rect
         width="80.978439"
         height="16.672031"
         x="316.76859"
         y="940.39264"
         id="rect3812" /></flowRegion><flowPara
       id="flowPara3814" /></flowRoot>  <path
     style="color:#000000;fill:#999999;fill-opacity:1;fill-rule:evenodd;stroke:none;stroke-width:4;marker:none;visibility:visible;display:inline;overflow:visible;enable-background:accumulate"
     d="m 275.1916,12.809476 c -13.71382,0.0239 -27.42086,1.66842 -40.66226,4.30132 -4.97605,0.99692 -9.81792,1.86708 -14.43169,2.61112 l 1.01845,3.57545 c 22.03085,-2.35323 44.66161,-1.26264 65.96105,5.96985 28.04584,9.52322 43.65806,25.04647 61.15047,59.98034 17.49276,34.933904 17.78793,31.525284 36.71844,41.604864 5.77654,3.07575 11.64374,6.57243 13.03404,7.76843 3.76247,3.23606 3.09176,8.56201 -2.53529,20.304 -5.83335,12.17235 -6.1447,15.51938 -2.16692,23.31607 3.60819,7.07258 3.60819,8.80463 0,13.39156 -3.72086,4.73051 -3.64979,7.4151 0.26002,10.01117 3.08986,2.05171 3.10165,2.20515 0.69343,8.22346 -2.34445,5.85922 -2.32686,6.5379 0.42253,15.43931 1.74778,5.65933 2.53903,11.0433 2.00441,13.71663 -1.78657,8.93294 -15.13828,18.57803 -37.79108,27.314 -8.48635,3.27272 -12.07973,3.5091 -22.20011,10.87796 -10.12035,7.36884 -19.15598,32.6771 -9.19856,51.75685 3.80477,7.29021 10.56729,12.43844 12.95818,16.50111 -4.53719,2.12179 -9.17034,4.0758 -13.88995,5.85069 16.84985,-3.01233 32.94733,-8.18462 47.99727,-15.22261 -2.39089,-4.06274 -9.15341,-9.21097 -12.95817,-16.5011 -9.95745,-19.07968 -0.92215,-44.38801 9.19855,-51.75687 10.12038,-7.36884 13.71376,-7.60526 22.20012,-10.87793 22.65279,-8.73605 36.00449,-18.38111 37.79107,-27.31404 0.53462,-2.67333 -0.25663,-8.05731 -2.00441,-13.71662 -2.74939,-8.90138 -2.76698,-9.58006 -0.42253,-15.43928 2.40787,-6.01834 2.39643,-6.17177 -0.69343,-8.22348 -3.90982,-2.5961 -3.98123,-5.2807 -0.26002,-10.01117 3.60817,-4.58699 3.60817,-6.31904 0,-13.39156 -3.97778,-7.79671 -3.66643,-11.14376 2.16692,-23.31606 5.62705,-11.74203 6.29777,-17.06793 2.5353,-20.30403 -1.39031,-1.19601 -7.25754,-4.69265 -13.03405,-7.76843 -18.93053,-10.07953 -19.22568,-6.67092 -36.71844,-41.604874 -17.49242,-34.93387 -33.10463,-50.45712 -61.15047,-59.98034 -14.89916,-5.05918 -30.45058,-7.11315 -45.99287,-7.08579 z"
     id="path3032-56-2-1-0-9-4-7-8-5-2-8-5-3-5-5-2-0-0-9-2"
     inkscape:export-filename="/home/sl231636/logo_anne_variante.png"
     inkscape:export-xdpi="50"
     inkscape:export-ydpi="50"
     inkscape:connector-curvature="0" />
  <path
     style="color:#000000;fill:#000000;fill-opacity:1;fill-rule:evenodd;stroke:none;stroke-width:4;marker:none;visibility:visible;display:inline;overflow:visible;enable-background:accumulate"
     d="m 258.92885,18.584306 c -6.67649,0.0118 -13.34812,0.40883 -19.96814,1.11598 15.4164,0.007 30.84608,2.06762 45.62448,7.08579 28.04584,9.52321 43.65805,25.04648 61.15047,59.98034 17.49276,34.933944 17.78792,31.525334 36.71848,41.604864 5.77645,3.07578 11.64371,6.57244 13.03401,7.76843 3.76246,3.2361 3.09176,8.562 -2.5353,20.30403 -5.83335,12.1723 -6.1447,15.51936 -2.16692,23.31606 3.60818,7.07252 3.60818,8.80457 0,13.39157 -3.72087,4.73048 -3.64978,7.41506 0.26004,10.01117 3.08985,2.05171 3.10164,2.20517 0.69341,8.22348 -2.34444,5.85917 -2.3269,6.53789 0.42256,15.43928 1.74775,5.65931 2.539,11.04328 2.00438,13.71661 -1.78657,8.93294 -15.13827,18.57799 -37.79108,27.31404 -8.48635,3.27268 -12.07972,3.50909 -22.20009,10.87794 -10.12039,7.36881 -19.15602,32.67708 -9.19858,51.75686 3.80477,7.29014 10.56729,12.43837 12.95819,16.50113 -19.06277,8.91452 -39.81441,14.83392 -61.63806,17.16199 29.29838,-0.0876 57.07177,-6.63251 81.97462,-18.27798 -2.39091,-4.06269 -9.15342,-9.21091 -12.95819,-16.50112 -9.95777,-19.07964 -0.92182,-44.38802 9.19855,-51.75687 10.12039,-7.36883 13.71412,-7.60523 22.20009,-10.87793 22.65315,-8.73598 36.00453,-18.38106 37.79108,-27.314 0.53466,-2.67332 -0.25628,-8.0573 -2.00439,-13.71665 -2.74939,-8.90137 -2.76661,-9.58007 -0.42255,-15.4393 2.40822,-6.01831 2.39682,-6.17172 -0.69342,-8.22346 -3.90982,-2.59611 -3.98083,-5.28067 -0.26004,-10.01118 3.60822,-4.58692 3.60819,-6.319 0,-13.39156 -3.97739,-7.79672 -3.66636,-11.14375 2.16692,-23.31605 5.62741,-11.74197 6.29745,-17.06792 2.53534,-20.30401 -1.39033,-1.196 -7.25756,-4.69268 -13.03405,-7.76842 -18.93021,-10.07958 -19.22574,-6.67095 -36.71844,-41.604874 -17.49276,-34.93387 -33.10505,-50.45712 -61.15047,-59.98033 -14.89936,-5.05923 -30.45063,-7.11316 -45.9929,-7.08583 z"
     id="path3032-56-2-1-0-9-4-7-8-5-2-8-5-3-5-5-2-4-3-6"
     inkscape:export-filename="/home/sl231636/logo_anne_variante.png"
     inkscape:export-xdpi="50"
     inkscape:export-ydpi="50"
     inkscape:connector-curvature="0" />
  <path
     style="fill:#85b9c3;fill-opacity:1;stroke:none"
     d="m 125.09802,207.52253 c 13.79303,-4.25359 25.49233,-16.7771 40.99882,-13.93985 13.45743,1.38746 29.56891,-5.6643 41.20891,2.64051 5.77268,14.08761 -12.1871,20.37767 -22.23779,24.47658 -16.3781,5.03497 -33.75611,5.57722 -50.3918,9.65762 -10.73615,-1.29312 -15.12407,-14.31648 -9.57814,-22.83486 l 0,0 z"
     id="path3765-7-8-6-2-11-8-5-9-9-0-1-1-4-5-3-29-0"
     inkscape:connector-curvature="0"
     inkscape:export-filename="/home/sl231636/logo_anne_variante.png"
     inkscape:export-xdpi="50"
     inkscape:export-ydpi="50" />
  <path
     style="fill:#b781d6;fill-opacity:1;stroke:none"
     d="m 84.16229,194.47254 c -8.143101,-8.28627 -11.959665,-21.64185 -6.502484,-32.38894 1.102523,-5.97866 4.267272,-11.9302 10.070807,-14.49324 5.399265,-2.75821 11.841077,-2.1648 17.188687,0.37677 18.02219,5.93938 38.11666,4.3152 55.19302,13.26316 7.0333,5.7907 4.12061,17.09897 -2.10485,22.35927 -7.72847,5.98504 -17.44735,8.59451 -26.42395,12.16825 -7.26456,2.06311 -13.42936,6.91255 -20.79308,8.51042 -9.77506,1.73294 -20.271262,-2.19914 -26.62815,-9.79569 z"
     id="path3767-5-0-6-1-2-7-8-4-2-5-8-6-0-5-8-4-9"
     inkscape:connector-curvature="0"
     inkscape:export-filename="/home/sl231636/logo_anne_variante.png"
     inkscape:export-xdpi="50"
     inkscape:export-ydpi="50" />
  <path
     style="fill:#8383ad;fill-opacity:1;stroke:none"
     d="m 220.38597,121.50946 c -16.76363,-17.59401 -40.47146,-31.497484 -47.44375,-56.108634 -3.50175,-21.08004 18.8834,-29.67845 36.06865,-26.02581 21.89073,-0.50058 44.78033,-7.05965 65.59907,3.11988 21.27777,10.36075 47.14802,25.07276 49.32567,51.36689 4.87228,23.854844 -19.2145,36.708004 -39.68859,36.495324 -18.40808,-1.32948 -37.49361,20.23812 -53.10029,2.4341 -4.04781,-3.31794 -6.8603,-7.86228 -10.76076,-11.28175 z"
     id="path3769-7-7-9-1-2-9-0-7-2-3-2-9-1-9-2-3-5"
     inkscape:connector-curvature="0"
     inkscape:export-filename="/home/sl231636/logo_anne_variante.png"
     inkscape:export-xdpi="50"
     inkscape:export-ydpi="50" />
  <path
     style="fill:#81b1cf;fill-opacity:1;stroke:none"
     d="m 173.42343,175.76737 c -4.41219,-14.95965 10.44561,-25.63966 21.92925,-31.65426 11.78631,-7.23918 27.07436,-7.54726 38.89811,-0.24633 8.0339,6.49961 27.4332,6.37109 23.11878,20.94073 -4.43923,14.06396 -21.40465,13.33786 -33.33241,13.67032 -13.96885,2.7671 -27.61594,7.55349 -41.88917,8.97891 -5.52653,-1.1406 -6.56179,-7.43215 -8.72456,-11.68937 z"
     id="path3771-4-0-2-2-6-3-2-0-5-9-6-0-8-9-0-6-0"
     inkscape:connector-curvature="0"
     inkscape:export-filename="/home/sl231636/logo_anne_variante.png"
     inkscape:export-xdpi="50"
     inkscape:export-ydpi="50" />
  <path
     style="fill:#a9a0b6;fill-opacity:1;stroke:none"
     d="m 124.76864,145.86312 c -17.63873,-3.71608 -46.098184,-12.4597 -38.564587,-36.22838 6.935179,-28.275084 30.537277,-52.396304 58.996037,-58.999964 20.96261,-1.73787 22.68713,23.00041 28.17169,37.16448 4.49611,20.462244 32.45388,22.601324 36.42402,40.639004 -9.54866,10.1489 -28.10339,8.34504 -40.22635,17.86933 -14.48368,3.23894 -30.33549,3.06511 -44.80081,-0.44447 z"
     id="path3773-5-2-2-5-2-3-6-0-7-8-9-31-8-8-5-1-2"
     inkscape:connector-curvature="0"
     inkscape:export-filename="/home/sl231636/logo_anne_variante.png"
     inkscape:export-xdpi="50"
     inkscape:export-ydpi="50" />
  <rect
     style="opacity:0;fill:#ffffff;fill-opacity:1;stroke:none"
     id="rect4318-4-4-6-4-5-4-6-9-5-1"
     width="183.75085"
     height="49.662388"
     x="116.30451"
     y="247.19702"
     inkscape:export-filename="/home/sl231636/logo_anne_variante.png"
     inkscape:export-xdpi="50"
     inkscape:export-ydpi="50" />
  <text
     xml:space="preserve"
     style="font-size:13.86828709px;font-style:normal;font-weight:normal;fill:#000000;fill-opacity:1;stroke:none;font-family:Bitstream Vera Sans"
     id="text3667-3-0-9-2-1"
     x="156.57941"
     y="284.59357"
     inkscape:export-filename="/home/sl231636/logo_anne_variante.png"
     inkscape:export-xdpi="50"
     inkscape:export-ydpi="50"><tspan
       id="tspan3669-2-3-2-0-6"
       style="font-size:55.47314835px;font-style:normal;font-variant:normal;font-weight:normal;font-stretch:normal;font-family:LMSans8;-inkscape-font-specification:LMSans8">Brain</tspan></text>
  <text
     xml:space="preserve"
     style="font-size:13.86828709px;font-style:normal;font-weight:normal;fill:#000000;fill-opacity:1;stroke:none;font-family:Bitstream Vera Sans"
     id="text3667-3-0-9-2-6-0"
     x="202.13148"
     y="341.4324"
     inkscape:export-filename="/home/sl231636/logo_anne_variante.png"
     inkscape:export-xdpi="50"
     inkscape:export-ydpi="50"><tspan
       id="tspan3669-2-3-2-0-1-5"
       style="font-size:55.47314835px;font-style:normal;font-variant:normal;font-weight:normal;font-stretch:normal;font-family:LMSans8;-inkscape-font-specification:LMSans8">Visa</tspan></text>
</svg>
